<?xml version="1.0" encoding="utf-8"?>
<!-- Generator: Adobe Illustrator 25.0.1, SVG Export Plug-In . SVG Version: 6.00 Build 0)  -->
<svg version="1.1" id="Layer_1" xmlns="http://www.w3.org/2000/svg" xmlns:xlink="http://www.w3.org/1999/xlink" x="0px" y="0px"
	 viewBox="0 0 444 64" style="enable-background:new 0 0 444 64;" xml:space="preserve">
<style type="text/css">
	.st0{fill-rule:evenodd;clip-rule:evenodd;fill:url(#SVGID_1_);}
	.st1{fill-rule:evenodd;clip-rule:evenodd;fill:url(#SVGID_2_);}
	.st2{fill-rule:evenodd;clip-rule:evenodd;fill:#CFD1D2;}
	.st3{fill:url(#SVGID_3_);}
	.st4{fill:url(#SVGID_4_);}
	.st5{fill:url(#SVGID_5_);}
	.st6{fill:url(#SVGID_6_);}
	.st7{fill:url(#SVGID_7_);}
	.st8{fill:url(#SVGID_8_);}
	.st9{fill:url(#SVGID_9_);}
	.st10{fill:url(#SVGID_10_);}
</style>
<linearGradient id="SVGID_1_" gradientUnits="userSpaceOnUse" x1="-3.461679e-02" y1="26.5226" x2="448.9564" y2="25.4774" gradientTransform="matrix(1 0 0 -1 0 66)">
	<stop  offset="0" style="stop-color:#8257E6"/>
	<stop  offset="0.5682" style="stop-color:#4763FF"/>
	<stop  offset="0.9392" style="stop-color:#04D361"/>
</linearGradient>
<path class="st0" d="M29.2,33.5V22.4L0.1,33.8H0v11.4h0.1l29.2,11.4V45.5l-15-6L29.2,33.5z"/>
<linearGradient id="SVGID_2_" gradientUnits="userSpaceOnUse" x1="-8.879423e-03" y1="31.2695" x2="448.9821" y2="30.2243" gradientTransform="matrix(1 0 0 -1 0 66)">
	<stop  offset="0" style="stop-color:#8257E6"/>
	<stop  offset="0.5682" style="stop-color:#4763FF"/>
	<stop  offset="0.9392" style="stop-color:#04D361"/>
</linearGradient>
<path class="st1" d="M188.1,56V44.9l14.9-6l-14.9-6V21.9l29.1,11.4h0.1v11.4h-0.1L188.1,56z M175.6,6.2L158.5,64h10.2l17.1-57.8
	H175.6z"/>
<path class="st2" d="M72.1,20.3c2.9,3.3,4.4,7.8,4.2,12.3v24.6H66.2V34.8c0.1-2.5-0.6-4.9-2.1-6.9c-0.7-0.9-1.6-1.5-2.5-2
	c-1-0.4-2-0.7-3.1-0.6c-6.4,0-9.5,4.6-9.5,13.9v17.9H38.6V16.8h10.2v3.6c1.6-1.6,3.5-2.9,5.6-3.7c2.1-0.8,4.3-1.2,6.5-1.1
	c2.1-0.1,4.1,0.3,6.1,1.1C68.9,17.5,70.7,18.8,72.1,20.3z"/>
<path class="st2" d="M84.3,0v57.8h10.2V0H84.3z"/>
<path class="st2" d="M148.9,55.7h-8.5l-8.3-23.8l-8.4,23.8h-8.5L101,15.2h10.9l8,24.2l8.3-24.2h8l8.3,24.3l8-24.3h10.8L148.9,55.7z"
	/>
<linearGradient id="SVGID_3_" gradientUnits="userSpaceOnUse" x1="-10.7998" y1="30.5723" x2="444.0009" y2="30.4603" gradientTransform="matrix(1 0 0 -1 0 66)">
	<stop  offset="0" style="stop-color:#8257E6"/>
	<stop  offset="0.526" style="stop-color:#4763FF"/>
	<stop  offset="1" style="stop-color:#04D361"/>
</linearGradient>
<path class="st3" d="M249.9,19.5h-5.7v6.8H238V31h6.2v20.5h5.7V31h6.2v-4.7h-6.2V19.5z"/>
<linearGradient id="SVGID_4_" gradientUnits="userSpaceOnUse" x1="-10.8007" y1="27.1825" x2="444" y2="27.0705" gradientTransform="matrix(1 0 0 -1 0 66)">
	<stop  offset="0" style="stop-color:#8257E6"/>
	<stop  offset="0.526" style="stop-color:#4763FF"/>
	<stop  offset="1" style="stop-color:#04D361"/>
</linearGradient>
<path class="st4" d="M279.3,27.3c-2.2-1-4.8-1.6-7.6-1.6c-2.9,0-5.4,0.5-7.7,1.6c-2.2,1-4,2.6-5.3,4.5c-1.3,2-1.9,4.3-1.9,7.1
	c0,2.8,0.7,5.2,1.9,7.1c1.3,2,3.1,3.4,5.3,4.4c2.2,1,4.8,1.5,7.7,1.5c2.9,0,5.4-0.5,7.6-1.5c2.2-1,4-2.5,5.3-4.4
	c1.3-2,1.9-4.3,1.9-7.1c0-2.8-0.7-5.1-1.9-7.1C283.3,29.9,281.6,28.4,279.3,27.3z M279.5,43.5c-0.8,1.3-1.9,2.2-3.3,2.9
	c-1.4,0.7-2.9,1-4.5,1c-1.7,0-3.2-0.3-4.6-1c-1.4-0.7-2.5-1.6-3.3-2.9c-0.8-1.3-1.2-2.8-1.2-4.6c0-1.8,0.4-3.4,1.3-4.7
	c0.8-1.3,1.9-2.2,3.3-2.9c1.4-0.7,2.9-1,4.5-1c1.7,0,3.2,0.3,4.6,1c1.4,0.7,2.4,1.7,3.2,3c0.8,1.3,1.2,2.8,1.2,4.6
	C280.7,40.7,280.3,42.3,279.5,43.5z"/>
<linearGradient id="SVGID_5_" gradientUnits="userSpaceOnUse" x1="-10.8019" y1="22.3468" x2="443.9988" y2="22.2348" gradientTransform="matrix(1 0 0 -1 0 66)">
	<stop  offset="0" style="stop-color:#8257E6"/>
	<stop  offset="0.526" style="stop-color:#4763FF"/>
	<stop  offset="1" style="stop-color:#04D361"/>
</linearGradient>
<path class="st5" d="M303.1,25.9c-0.7-0.1-1.4-0.1-2.1-0.1c-2.5,0-4.7,0.4-6.6,1.4c-1.9,0.9-3.4,2.2-4.5,3.8
	c-1.1,1.7-1.6,3.6-1.6,5.9c0,2.2,0.6,4.2,1.7,5.8c1.1,1.6,2.6,2.9,4.6,3.7c0.6,0.2,1.2,0.4,1.8,0.6c-0.9,0-1.8,0.1-2.6,0.2
	c-1.4,0.2-2.5,0.7-3.3,1.3c-0.8,0.7-1.3,1.7-1.3,3c0,0.7,0.1,1.3,0.4,1.9c0.3,0.6,0.7,1.1,1.3,1.5c0.6,0.4,1.4,0.7,2.3,1
	c1,0.2,2.2,0.3,3.5,0.3h7c1.8,0,3.1,0.3,4.1,1c1,0.7,1.5,1.8,1.5,3.4v1.2h5.7v-2.3c0-2-0.4-3.6-1.3-4.8c-0.8-1.2-2.1-2-3.6-2.5
	s-3.4-0.7-5.5-0.7h-7.3c-0.7,0-1.3-0.1-1.7-0.4c-0.4-0.3-0.6-0.7-0.6-1.2c0-0.8,0.5-1.4,1.6-1.7c1-0.3,2.6-0.4,4.6-0.5
	c2.5,0,4.7-0.4,6.6-1.3c1.9-0.8,3.4-2.1,4.5-3.6c1.1-1.6,1.6-3.5,1.6-5.7c0-1.3-0.3-2.6-0.8-3.6c-0.6-1-1.3-2-2.2-2.8
	c-0.5-0.4-1-0.9-1.6-1.2c0.9,0.3,1.9,0.7,3,1c1.7,0.5,3.3,0.7,4.9,0.7v-4.8l-12,0C304.4,26.1,303.7,26,303.1,25.9z M307.1,33.3
	c0.6,1,0.9,2.1,0.9,3.4c0,1.3-0.3,2.5-0.9,3.4c-0.6,0.9-1.5,1.7-2.5,2.1c-1.1,0.5-2.3,0.7-3.6,0.7c-1.4,0-2.6-0.2-3.7-0.7
	c-1-0.5-1.9-1.2-2.5-2.1c-0.6-0.9-0.9-2.1-0.9-3.4c0-1.3,0.3-2.5,0.9-3.4c0.6-1,1.5-1.7,2.5-2.2c1.1-0.5,2.3-0.8,3.7-0.8
	s2.6,0.2,3.6,0.8C305.7,31.6,306.5,32.4,307.1,33.3z"/>
<linearGradient id="SVGID_6_" gradientUnits="userSpaceOnUse" x1="-10.8007" y1="27.2148" x2="444" y2="27.1028" gradientTransform="matrix(1 0 0 -1 0 66)">
	<stop  offset="0" style="stop-color:#8257E6"/>
	<stop  offset="0.526" style="stop-color:#4763FF"/>
	<stop  offset="1" style="stop-color:#04D361"/>
</linearGradient>
<path class="st6" d="M340.4,27.3c-2.1-1.1-4.6-1.6-7.6-1.6c-3,0-5.6,0.6-7.8,1.6c-2.2,1.1-4,2.6-5.3,4.6c-1.3,2-1.9,4.3-1.9,7
	c0,2.7,0.7,5,1.9,7c1.3,2,3.1,3.4,5.4,4.5c2.3,1.1,4.9,1.6,7.9,1.6c2.6,0,4.8-0.4,6.6-1.1c1.8-0.8,3.3-1.8,4.4-3.1
	c1.1-1.3,1.8-2.9,2.1-4.6h-5.6c-0.5,1.2-1.3,2.3-2.7,3.1c-1.4,0.8-3,1.2-5,1.2c-1.8,0-3.4-0.3-4.7-1c-1.3-0.7-2.4-1.5-3.2-2.6
	c-0.8-1.1-1.3-2.4-1.4-3.8h22.6c0.2-3.2-0.2-5.9-1.2-8C344,30,342.5,28.4,340.4,27.3z M324,36.3c0.5-1.8,1.4-3.2,2.9-4.3
	c1.5-1.1,3.4-1.7,5.7-1.7c2.2,0,4.1,0.5,5.5,1.6c1.4,1,2.2,2.5,2.3,4.4H324z"/>
<linearGradient id="SVGID_7_" gradientUnits="userSpaceOnUse" x1="-10.7998" y1="30.5992" x2="444.0009" y2="30.4872" gradientTransform="matrix(1 0 0 -1 0 66)">
	<stop  offset="0" style="stop-color:#8257E6"/>
	<stop  offset="0.526" style="stop-color:#4763FF"/>
	<stop  offset="1" style="stop-color:#04D361"/>
</linearGradient>
<path class="st7" d="M359,19.5h-5.7v6.8H347V31h6.2v20.5h5.7V31h6.2v-4.7H359V19.5z"/>
<linearGradient id="SVGID_8_" gradientUnits="userSpaceOnUse" x1="-10.7994" y1="32.2749" x2="444.0013" y2="32.1629" gradientTransform="matrix(1 0 0 -1 0 66)">
	<stop  offset="0" style="stop-color:#8257E6"/>
	<stop  offset="0.526" style="stop-color:#4763FF"/>
	<stop  offset="1" style="stop-color:#04D361"/>
</linearGradient>
<path class="st8" d="M391.9,28.2c-0.9-0.8-2-1.4-3.2-1.8c-1.3-0.4-2.6-0.6-4.1-0.6c-1.6,0-3,0.3-4.3,0.8c-1.3,0.5-2.4,1.2-3.4,2.1
	c-0.9,0.9-1.7,1.9-2.3,3c-0.3,0.6-0.6,1.3-0.8,1.9V16.2H368v35.2h5.7v-15c0.2-0.7,0.6-1.4,1.1-2c0.8-1.1,1.9-1.9,3.2-2.6
	c1.3-0.7,2.7-1,4.4-1c1.6,0,2.8,0.2,3.8,0.7c0.9,0.4,1.7,1.1,2.1,2c0.5,0.9,0.7,2,0.7,3.3v14.5h5.8V35.1c0-1.6-0.2-2.9-0.7-4.1
	C393.5,29.9,392.8,28.9,391.9,28.2z"/>
<linearGradient id="SVGID_9_" gradientUnits="userSpaceOnUse" x1="-10.8007" y1="27.2344" x2="444.0001" y2="27.1224" gradientTransform="matrix(1 0 0 -1 0 66)">
	<stop  offset="0" style="stop-color:#8257E6"/>
	<stop  offset="0.526" style="stop-color:#4763FF"/>
	<stop  offset="1" style="stop-color:#04D361"/>
</linearGradient>
<path class="st9" d="M420.2,27.3c-2.1-1.1-4.6-1.6-7.6-1.6c-3,0-5.6,0.6-7.8,1.6c-2.2,1.1-4,2.6-5.3,4.6c-1.3,2-1.9,4.3-1.9,7
	c0,2.7,0.7,5,1.9,7c1.3,2,3.1,3.4,5.4,4.5c2.3,1.1,4.9,1.6,7.9,1.6c2.6,0,4.8-0.4,6.6-1.1c1.8-0.8,3.3-1.8,4.4-3.1
	c1.1-1.3,1.8-2.9,2.1-4.6h-5.6c-0.5,1.2-1.3,2.3-2.7,3.1c-1.4,0.8-3,1.2-5,1.2c-1.8,0-3.4-0.3-4.7-1c-1.3-0.7-2.4-1.5-3.2-2.6
	c-0.8-1.1-1.3-2.4-1.4-3.8H426c0.2-3.2-0.2-5.9-1.2-8C423.8,30,422.3,28.4,420.2,27.3z M403.8,36.3c0.5-1.8,1.4-3.2,2.9-4.3
	c1.5-1.1,3.4-1.7,5.7-1.7c2.2,0,4.1,0.5,5.5,1.6c1.4,1,2.2,2.5,2.3,4.4H403.8z"/>
<linearGradient id="SVGID_10_" gradientUnits="userSpaceOnUse" x1="-10.8006" y1="27.5334" x2="444.0001" y2="27.4214" gradientTransform="matrix(1 0 0 -1 0 66)">
	<stop  offset="0" style="stop-color:#8257E6"/>
	<stop  offset="0.526" style="stop-color:#4763FF"/>
	<stop  offset="1" style="stop-color:#04D361"/>
</linearGradient>
<path class="st10" d="M440.2,26.5c-1.1,0.6-2,1.2-2.7,2.1c-0.7,0.9-1.3,1.8-1.8,2.7c-0.4,0.8-0.7,1.6-0.9,2.3v-7.3H429v25.1h5.7v-14
	c0.3-0.7,0.7-1.5,1.3-2.3c0.8-1.1,1.8-2.1,3.2-2.8c1.3-0.8,2.9-1.2,4.8-1.2v-5.4C442.6,25.8,441.3,26,440.2,26.5z"/>
</svg>
